<svg width="18" height="19" viewBox="0 0 18 19" fill="none" xmlns="http://www.w3.org/2000/svg">
<path opacity="0.4" d="M12.0562 2H14.5957C15.6474 2 16.4996 2.85939 16.4996 3.91997V6.48089C16.4996 7.54148 15.6474 8.40087 14.5957 8.40087H12.0562C11.0045 8.40087 10.1523 7.54148 10.1523 6.48089V3.91997C10.1523 2.85939 11.0045 2 12.0562 2Z" fill="url(#paint0_linear_226_1950)"/>
<path fill-rule="evenodd" clip-rule="evenodd" d="M3.40389 2H5.94337C6.99507 2 7.84726 2.85939 7.84726 3.91997V6.48089C7.84726 7.54148 6.99507 8.40087 5.94337 8.40087H3.40389C2.35219 8.40087 1.5 7.54148 1.5 6.48089V3.91997C1.5 2.85939 2.35219 2 3.40389 2ZM3.40389 10.5991H5.94337C6.99507 10.5991 7.84726 11.4585 7.84726 12.5191V15.08C7.84726 16.1399 6.99507 17 5.94337 17H3.40389C2.35219 17 1.5 16.1399 1.5 15.08V12.5191C1.5 11.4585 2.35219 10.5991 3.40389 10.5991ZM14.5961 10.5991H12.0566C11.0049 10.5991 10.1527 11.4585 10.1527 12.5191V15.08C10.1527 16.1399 11.0049 17 12.0566 17H14.5961C15.6478 17 16.5 16.1399 16.5 15.08V12.5191C16.5 11.4585 15.6478 10.5991 14.5961 10.5991Z" fill="url(#paint1_linear_226_1950)"/>
<defs>
<linearGradient id="paint0_linear_226_1950" x1="9.6924" y1="0.357673" x2="14.9603" y2="10.1961" gradientUnits="userSpaceOnUse">
<stop stop-color="#FFC881"/>
<stop offset="1" stop-color="#DA8517"/>
</linearGradient>
<linearGradient id="paint1_linear_226_1950" x1="0.413044" y1="-1.84868" x2="12.7002" y2="21.293" gradientUnits="userSpaceOnUse">
<stop stop-color="#FFC881"/>
<stop offset="1" stop-color="#DA8517"/>
</linearGradient>
</defs>
</svg>
