<svg width="20" height="15" viewBox="0 0 20 15" fill="none" xmlns="http://www.w3.org/2000/svg">
<path fill-rule="evenodd" clip-rule="evenodd" d="M1.42733 0.0655202C0.434073 0.306416 -0.19103 1.3213 0.0597284 2.2859C0.136288 2.58043 0.279979 2.84354 0.475762 3.04766C0.650545 3.22992 8.94972 8.78955 9.25343 8.92786C9.71641 9.13865 10.2681 9.13096 10.7406 8.90705C11.1114 8.73138 19.2417 3.27973 19.4482 3.06835C20.4186 2.07494 19.8889 0.39097 18.5032 0.0637246C18.1386 -0.0223906 1.78277 -0.0206731 1.42733 0.0655202ZM0 8.76218C0 11.9237 0.0130912 13.3744 0.0429359 13.5182C0.185692 14.2063 0.741677 14.7675 1.44521 14.9336C1.81223 15.0203 18.0707 15.0229 18.4784 14.9364C19.1875 14.7858 19.7607 14.2163 19.9055 13.5182C19.9549 13.28 19.9683 4.20424 19.9192 4.2261C19.9031 4.23325 18.019 5.49019 15.7322 7.01931C13.4454 8.54842 11.449 9.86275 11.2958 9.94004C10.8651 10.1574 10.5 10.2403 9.97422 10.2403C9.44847 10.2403 9.08332 10.1574 8.65264 9.94004C8.49944 9.86275 6.50307 8.54842 4.21625 7.01931C1.92947 5.49019 0.0453126 4.23325 0.0292213 4.2261C0.0131301 4.21892 0 6.2602 0 8.76218Z" fill="#7C7C7C"/>
</svg>
