<svg width="18" height="19" viewBox="0 0 18 19" fill="none" xmlns="http://www.w3.org/2000/svg">
<path fill-rule="evenodd" clip-rule="evenodd" d="M5.80228 0.561525C5.73499 0.59531 5.64401 0.676732 5.60013 0.742439C5.52838 0.849842 5.52033 0.903913 5.52033 1.27857V1.69525H8.29768H11.075V1.27857C11.075 0.904229 11.067 0.850123 10.9959 0.74599C10.9524 0.682287 10.8617 0.600829 10.7943 0.56504C10.6786 0.503517 10.5409 0.499931 8.29824 0.500001C6.1086 0.500036 5.91513 0.504817 5.80228 0.561525ZM3.78009 2.77571C3.64934 2.80844 3.50854 2.93564 3.44276 3.08044C3.37962 3.21956 3.3773 3.48991 3.37656 10.8623L3.37579 18.5H10.4788C17.3836 18.5 17.5854 18.4981 17.7125 18.4333C17.8648 18.3556 18.0008 18.1386 18.0008 17.9732C18.0008 17.8155 17.9067 17.6339 17.7768 17.5413L17.6669 17.4629L15.4344 17.4453L13.202 17.4277L13.1917 17.1127L13.1815 16.7976L12.5926 16.1986C11.4336 15.0197 10.7021 14.0675 10.2073 13.0936C9.80505 12.3017 9.6377 11.611 9.68235 10.9265C9.75653 9.78839 10.1966 8.77856 10.9685 7.97485C11.5351 7.38499 12.1653 6.98101 12.8944 6.74047L13.1844 6.64477L13.1843 4.88193C13.1842 3.17614 13.1819 3.11532 13.1133 3.00278C13.0723 2.93564 12.9795 2.85794 12.8936 2.81899C12.7494 2.75349 12.6118 2.75159 8.29768 2.75479C5.85168 2.75662 3.81876 2.76601 3.78009 2.77571ZM7.24229 3.95405C7.43779 4.05396 7.52769 4.17687 7.54783 4.37191C7.5672 4.55972 7.48072 4.73628 7.31334 4.85053C7.20411 4.9251 7.16231 4.92964 6.58602 4.92964H5.97465L5.82995 4.79467C5.70061 4.67401 5.68352 4.63879 5.66893 4.46279C5.65589 4.30568 5.66725 4.2424 5.72508 4.14952C5.86771 3.92054 5.99395 3.88187 6.61151 3.87797C7.03926 3.87526 7.10314 3.88296 7.24229 3.95405ZM10.677 3.96607C10.9933 4.20063 11.0206 4.5632 10.7416 4.82417C10.6504 4.90949 10.6307 4.91237 10.0649 4.92327C9.74433 4.92946 9.44617 4.92552 9.40233 4.91452C9.17336 4.85704 9.00355 4.56851 9.05073 4.31704C9.08065 4.15764 9.25436 3.95598 9.3999 3.91182C9.46076 3.89333 9.75073 3.88141 10.0442 3.88535C10.5242 3.89182 10.5878 3.8999 10.677 3.96607ZM7.31608 6.24006C7.47059 6.34419 7.57814 6.59419 7.54481 6.7718C7.51306 6.94107 7.33946 7.13391 7.17858 7.17859C7.10764 7.19828 6.83711 7.21448 6.57734 7.21459C6.17125 7.21477 6.08395 7.20461 5.95461 7.14199C5.57953 6.96041 5.55756 6.44846 5.91552 6.23025C6.01768 6.16795 6.09338 6.16036 6.61376 6.16025C7.16276 6.16011 7.20449 6.16486 7.31608 6.24006ZM10.6798 6.23025C10.86 6.34004 10.9407 6.49708 10.9252 6.70749C10.9092 6.92487 10.8253 7.04883 10.6281 7.14646C10.4937 7.21304 10.43 7.21874 9.93621 7.20851C9.45211 7.19845 9.38176 7.18928 9.29545 7.12473C8.96558 6.87811 8.95746 6.45437 9.27847 6.23991C9.39069 6.16493 9.4332 6.16011 9.9816 6.16025C10.502 6.16036 10.5777 6.16795 10.6798 6.23025ZM13.7235 7.61632C12.133 7.91821 10.94 9.20089 10.7545 10.8086C10.6841 11.4188 10.7874 11.894 11.1446 12.6023C11.6067 13.519 12.7183 14.91 13.7367 15.8461C14.3694 16.4277 14.4332 16.4145 15.329 15.5142C16.7163 14.1199 17.6338 12.7972 17.9189 11.7805C18.0176 11.4287 18.0019 10.7419 17.8852 10.3013C17.7807 9.90704 17.5826 9.4652 17.3664 9.14422C17.1727 8.85653 16.7107 8.39451 16.4231 8.20083C16.109 7.9893 15.6109 7.76289 15.2586 7.67141C14.8792 7.57294 14.0995 7.54495 13.7235 7.61632ZM0.289689 8.46858C0.226231 8.49987 0.139219 8.57465 0.0963285 8.63477L0.0183516 8.7441L0.00917582 13.4145L0 18.0848L0.074848 18.2179C0.116016 18.2912 0.209286 18.3846 0.282165 18.4255C0.40806 18.4963 0.462096 18.5 1.36786 18.5H2.3211V17.3786V16.2572L1.88421 16.2448C1.50965 16.2342 1.43343 16.2221 1.35022 16.1599C1.01904 15.9126 1.01268 15.4956 1.33668 15.2744C1.44145 15.2029 1.49429 15.1953 1.88684 15.1953H2.3211V14.5801V13.9648H1.88684C1.49429 13.9648 1.44145 13.9572 1.33668 13.8857C1.1693 13.7715 1.08282 13.5949 1.10219 13.4071C1.12233 13.2121 1.21223 13.0892 1.40773 12.9892C1.53999 12.9217 1.61783 12.9101 1.94183 12.9101H2.3211V12.3125V11.7148H1.90744C1.42542 11.7148 1.2985 11.6689 1.16828 11.4475C1.02864 11.21 1.09973 10.9374 1.35011 10.7502C1.4334 10.6879 1.50863 10.6761 1.88407 10.666L2.3211 10.6544V9.53224V8.41012L1.36308 8.41093C0.552694 8.41159 0.387283 8.42049 0.289689 8.46858ZM7.28215 8.4869C7.45839 8.58597 7.57694 8.81582 7.54695 9.00043C7.52192 9.15491 7.43554 9.27883 7.2785 9.38571C7.17022 9.4594 7.12476 9.46481 6.61376 9.46474C6.16172 9.4647 6.04374 9.45388 5.94291 9.40322C5.57939 9.22058 5.56378 8.69471 5.91552 8.48025C6.01712 8.41831 6.09331 8.41036 6.58781 8.41026C7.09621 8.41012 7.15759 8.4169 7.28215 8.4869ZM7.2194 10.7081C7.3698 10.7709 7.51563 10.9476 7.54463 11.1021C7.57662 11.2727 7.47822 11.5169 7.33693 11.6177C7.23318 11.6917 7.18372 11.6979 6.62775 11.7072C6.07917 11.7163 6.02067 11.7112 5.91552 11.6459C5.5635 11.4275 5.57795 10.9185 5.94164 10.7252C6.04496 10.6703 6.14558 10.6601 6.5844 10.6601C6.94423 10.6601 7.14002 10.6749 7.2194 10.7081ZM15.4108 10.7081C15.5691 10.7742 15.7044 10.9463 15.7335 11.1184C15.7659 11.3104 15.6441 11.5559 15.4701 11.6491C15.3589 11.7088 15.2575 11.7148 14.3698 11.7148C13.3209 11.7148 13.29 11.7102 13.1199 11.5282C12.8969 11.2894 12.9974 10.8438 13.3045 10.7101C13.4619 10.6416 15.2475 10.6398 15.4108 10.7081ZM7.24229 12.9892C7.43779 13.0892 7.52769 13.2121 7.54783 13.4071C7.5672 13.5949 7.48072 13.7715 7.31334 13.8857C7.20411 13.9603 7.16231 13.9648 6.58602 13.9648H5.97465L5.82995 13.8299C5.70061 13.7092 5.68352 13.674 5.66893 13.498C5.65589 13.3409 5.66725 13.2776 5.72508 13.1847C5.86771 12.9557 5.99395 12.9171 6.61151 12.9132C7.03926 12.9105 7.10314 12.9182 7.24229 12.9892Z" fill="#BFBFBF"/>
</svg>
