<svg width="697" height="614" viewBox="0 0 697 614" fill="none" xmlns="http://www.w3.org/2000/svg">
<path opacity="0.125" fill-rule="evenodd" clip-rule="evenodd" d="M188.868 -32.2705C235.266 -80.0068 309.114 -17.6006 373.607 -19.1554C428.487 -20.4784 487.744 -71.3471 531.573 -40.5321C576.013 -9.28815 563.2 59.7704 565.321 115.633C567.431 171.17 576.561 229.495 543.599 276.092C507.889 326.574 449.01 352.859 389.563 364.096C323.38 376.607 242.024 390.772 199.849 341.073C158.5 292.347 210.427 216.445 208.494 150.721C206.611 86.6958 143.023 14.8972 188.868 -32.2705Z" stroke="url(#paint0_linear_226_2061)" stroke-opacity="0.23"/>
<path opacity="0.25" fill-rule="evenodd" clip-rule="evenodd" d="M210.242 -12.2237C261.722 -53.5989 327.406 17.3491 391.353 23.8952C445.768 29.4655 510.33 -13.3944 550.045 22.5613C590.312 59.0176 569.534 125.68 565.071 181.17C560.634 236.337 562.811 295.138 524.749 337.071C483.513 382.5 422.213 401.105 362.118 404.763C295.213 408.836 213.113 412.642 177.252 358.226C142.093 304.874 202.347 236.349 208.155 171.135C213.812 107.606 159.375 28.6585 210.242 -12.2237Z" stroke="url(#paint1_linear_226_2061)" stroke-opacity="0.23"/>
<path opacity="0.375" fill-rule="evenodd" clip-rule="evenodd" d="M228.231 10.1553C283.94 -24.3369 340.48 54.0933 402.872 68.5806C455.962 80.9083 524.767 46.5856 559.769 87.1382C595.257 128.255 566.901 191.615 555.972 245.963C545.107 299.994 540.347 358.451 497.825 395.176C451.759 434.962 389.025 445.693 329.239 441.785C262.679 437.435 181.141 430.917 152.115 372.58C123.658 315.386 191.224 255.128 204.623 191.326C217.676 129.173 173.186 44.2365 228.231 10.1553Z" stroke="url(#paint2_linear_226_2061)" stroke-opacity="0.23"/>
<path opacity="0.5" fill-rule="evenodd" clip-rule="evenodd" d="M242.604 34.4181C301.638 7.21841 348.189 91.9595 408.047 114.103C458.982 132.946 530.918 107.551 560.678 152.087C590.853 197.244 555.407 256.451 538.221 308.911C521.134 361.065 509.551 418.365 463.266 449.424C413.123 483.072 349.957 485.86 291.423 474.52C226.257 461.895 146.567 445.252 124.799 383.848C103.457 323.648 177.226 272.412 197.965 210.897C218.167 150.973 184.273 61.2937 242.604 34.4181Z" stroke="url(#paint3_linear_226_2061)" stroke-opacity="0.23"/>
<path opacity="0.625" fill-rule="evenodd" clip-rule="evenodd" d="M253.185 60.0947C314.605 40.4801 350.471 130.266 406.864 159.663C454.85 184.678 528.777 168.457 552.847 216.304C577.252 264.817 535.301 319.092 512.15 368.951C489.133 418.519 470.933 473.873 421.626 498.899C368.209 526.011 305.605 520.916 249.24 502.392C186.487 481.77 109.892 455.358 95.6961 391.787C81.7786 329.462 160.569 287.856 188.294 229.464C215.302 172.582 192.497 79.4755 253.185 60.0947Z" stroke="url(#paint4_linear_226_2061)" stroke-opacity="0.23"/>
<path opacity="0.75" fill-rule="evenodd" clip-rule="evenodd" d="M259.862 86.7008C322.705 74.8445 347.352 168.335 399.409 204.468C443.706 235.215 518.466 228.272 536.484 278.706C554.752 329.842 506.963 378.485 478.22 425.073C449.644 471.39 425.125 524.04 373.571 542.762C317.719 563.045 256.65 550.246 203.325 524.901C143.959 496.684 71.6432 461.012 65.2255 396.204C58.9335 332.665 141.508 301.146 175.772 246.661C209.151 193.583 197.768 98.4159 259.862 86.7008Z" stroke="url(#paint5_linear_226_2061)" stroke-opacity="0.23"/>
<path opacity="0.875" fill-rule="evenodd" clip-rule="evenodd" d="M262.582 113.746C325.881 109.701 338.939 205.499 385.865 247.749C425.794 283.701 500.239 285.995 511.933 338.254C523.789 391.241 470.902 433.639 437.015 476.337C403.325 518.787 372.87 568.021 319.863 580.266C262.437 593.531 203.841 573.329 154.375 541.629C99.3034 506.336 32.3756 462.055 33.8268 396.958C35.2496 333.135 120.335 312.002 160.605 262.145C199.835 213.577 200.036 117.743 262.582 113.746Z" stroke="url(#paint6_linear_226_2061)" stroke-opacity="0.23"/>
<path fill-rule="evenodd" clip-rule="evenodd" d="M261.352 140.741C324.148 144.44 325.424 241.116 366.507 288.769C401.466 329.319 474.466 340.669 479.661 393.963C484.927 448 427.745 483.637 389.228 521.887C350.936 559.915 315.008 605.07 261.352 610.764C203.223 616.932 147.986 589.74 103.127 552.247C53.1843 510.506 -7.34272 458.399 1.95346 393.963C11.0676 330.79 97.3732 320.184 143.038 275.606C187.523 232.18 199.304 137.086 261.352 140.741Z" stroke="url(#paint7_linear_226_2061)" stroke-opacity="0.23"/>
<defs>
<linearGradient id="paint0_linear_226_2061" x1="-107.309" y1="124.082" x2="700.581" y2="336.705" gradientUnits="userSpaceOnUse">
<stop stop-color="#FFC881"/>
<stop offset="1" stop-color="#DA8517"/>
</linearGradient>
<linearGradient id="paint1_linear_226_2061" x1="-100.951" y1="105.219" x2="674.765" y2="411.791" gradientUnits="userSpaceOnUse">
<stop stop-color="#FFC881"/>
<stop offset="1" stop-color="#DA8517"/>
</linearGradient>
<linearGradient id="paint2_linear_226_2061" x1="-92.936" y1="87.3849" x2="639.737" y2="483.237" gradientUnits="userSpaceOnUse">
<stop stop-color="#FFC881"/>
<stop offset="1" stop-color="#DA8517"/>
</linearGradient>
<linearGradient id="paint3_linear_226_2061" x1="-83.406" y1="70.7749" x2="596.013" y2="549.99" gradientUnits="userSpaceOnUse">
<stop stop-color="#FFC881"/>
<stop offset="1" stop-color="#DA8517"/>
</linearGradient>
<linearGradient id="paint4_linear_226_2061" x1="-72.5248" y1="55.5668" x2="544.228" y2="611.068" gradientUnits="userSpaceOnUse">
<stop stop-color="#FFC881"/>
<stop offset="1" stop-color="#DA8517"/>
</linearGradient>
<linearGradient id="paint5_linear_226_2061" x1="-60.4775" y1="41.9166" x2="485.128" y2="665.573" gradientUnits="userSpaceOnUse">
<stop stop-color="#FFC881"/>
<stop offset="1" stop-color="#DA8517"/>
</linearGradient>
<linearGradient id="paint6_linear_226_2061" x1="-47.4669" y1="29.9557" x2="419.558" y2="712.704" gradientUnits="userSpaceOnUse">
<stop stop-color="#FFC881"/>
<stop offset="1" stop-color="#DA8517"/>
</linearGradient>
<linearGradient id="paint7_linear_226_2061" x1="-33.7101" y1="19.7895" x2="348.448" y2="751.769" gradientUnits="userSpaceOnUse">
<stop stop-color="#FFC881"/>
<stop offset="1" stop-color="#DA8517"/>
</linearGradient>
</defs>
</svg>
