<svg width="371" height="229" viewBox="0 0 371 229" fill="none" xmlns="http://www.w3.org/2000/svg">
<path opacity="0.0833333" fill-rule="evenodd" clip-rule="evenodd" d="M89.757 123.514C74.9832 137.96 49.0526 136.498 29.3902 131.675C10.7918 127.113 1.91521 107.623 -14.2473 98.0046C-30.9611 88.0579 -54.231 88.7414 -66.924 74.3564C-80.5294 58.9374 -85.7905 37.6344 -85.7985 16.9155C-85.8069 -4.77359 -86.558 -33.6313 -66.9704 -45.3288C-44.3435 -58.8413 -15.2823 -30.3707 9.29661 -39.8742C30.1612 -47.9415 28.3964 -92.9223 50.2491 -90.6519C72.9495 -88.2933 58.4698 -42.8587 78.336 -32.7011C101.442 -20.887 136.595 -51.429 157.154 -35.9909C174.102 -23.265 167.981 7.51404 157.142 26.473C146.376 45.3033 114.174 43.0254 101.74 60.9315C89.0993 79.1354 105.747 107.879 89.757 123.514Z" stroke="url(#paint0_linear_226_2046)" stroke-opacity="0.83" stroke-width="2"/>
<path opacity="0.166667" fill-rule="evenodd" clip-rule="evenodd" d="M83.213 109.539C66.8912 122.04 41.45 117.388 22.6027 110.177C4.77528 103.356 -1.66329 82.9308 -16.4797 71.3955C-31.8014 59.4667 -54.8708 57.2708 -65.6899 41.437C-77.2867 24.465 -79.9368 2.68821 -77.4675 -17.8607C-74.8825 -39.3717 -72.174 -68.0839 -51.4253 -77.2658C-27.4573 -87.8723 -2.15268 -56.0477 23.2644 -62.4373C44.8405 -67.8612 48.4753 -112.689 69.7915 -107.738C91.9345 -102.596 72.198 -59.3243 90.6087 -46.7971C112.022 -32.227 150.4 -58.1755 168.864 -40.3258C184.085 -25.6119 174.358 4.15713 161.383 21.6209C148.496 38.9661 116.958 32.7301 102.533 48.9528C87.8695 65.4453 100.878 96.0076 83.213 109.539Z" stroke="url(#paint1_linear_226_2046)" stroke-opacity="0.83" stroke-width="2"/>
<path opacity="0.25" fill-rule="evenodd" clip-rule="evenodd" d="M78.6054 95.1056C60.9876 105.502 36.425 97.7577 18.6807 88.2853C1.8965 79.3255 -2.00833 58.2684 -15.2532 45.0015C-28.9498 31.282 -51.4654 26.2663 -60.247 9.2261C-69.6599 -9.03895 -69.6617 -30.9709 -64.7558 -51.0551C-59.6202 -72.0795 -53.4979 -100.233 -31.9075 -106.792C-6.96726 -114.368 14.1975 -79.6806 40.0622 -82.8943C62.0183 -85.6223 70.9904 -129.651 91.4441 -122.118C112.691 -114.293 88.0066 -73.7879 104.681 -59.0948C124.076 -42.0056 165.087 -63.031 181.176 -43.0504C194.438 -26.5801 181.259 1.75929 166.35 17.4905C151.542 33.1149 121.149 23.0492 104.958 37.3709C88.4982 51.9307 97.6732 83.8532 78.6054 95.1056Z" stroke="url(#paint2_linear_226_2046)" stroke-opacity="0.83" stroke-width="2"/>
<path opacity="0.333333" fill-rule="evenodd" clip-rule="evenodd" d="M75.9647 80.4571C57.3191 88.6194 34.0077 77.9278 17.6353 66.3557C2.14884 55.4099 0.835767 34.0342 -10.6372 19.2469C-22.5015 3.95515 -44.1215 -3.77781 -50.7334 -21.7637C-57.8205 -41.0425 -55.1752 -62.8088 -47.9085 -82.1408C-40.3016 -102.378 -30.8602 -129.57 -8.75654 -133.437C16.7767 -137.903 33.4823 -100.889 59.4016 -100.913C81.404 -100.934 95.5745 -143.532 114.855 -133.553C134.884 -123.187 105.629 -86.0089 120.316 -69.3865C137.397 -50.0533 180.418 -65.9014 193.888 -44.1032C204.992 -26.1345 188.562 0.377924 171.946 14.1658C155.444 27.8601 126.657 14.1515 108.946 26.3836C90.9409 38.8192 96.1449 71.6231 75.9647 80.4571Z" stroke="url(#paint3_linear_226_2046)" stroke-opacity="0.83" stroke-width="2"/>
<path opacity="0.416667" fill-rule="evenodd" clip-rule="evenodd" d="M75.2917 65.8346C55.8987 71.6671 34.1888 58.218 19.4343 44.7396C5.47813 31.9906 6.77632 10.6141 -2.75243 -5.45944C-12.6062 -22.0813 -33.0059 -32.3878 -37.3488 -51.0445C-42.0038 -71.0424 -36.7515 -92.3249 -27.2334 -110.629C-17.2697 -129.79 -4.6515 -155.63 17.6332 -156.778C43.3756 -158.105 55.3712 -119.332 80.9555 -116.202C102.674 -113.545 121.829 -154.102 139.647 -141.851C158.157 -129.125 124.771 -95.7833 137.249 -77.4972C151.762 -56.2291 196.145 -66.7238 206.794 -43.4485C215.572 -24.2623 196.139 0.0535651 178.067 11.7169C160.117 23.301 133.37 6.19109 114.405 16.177C95.1258 26.3289 96.2809 59.5221 75.2917 65.8346Z" stroke="url(#paint4_linear_226_2046)" stroke-opacity="0.83" stroke-width="2"/>
<path opacity="0.5" fill-rule="evenodd" clip-rule="evenodd" d="M76.5576 51.4777C56.7054 54.9198 36.9197 38.9443 24.0024 23.7813C11.784 9.43882 15.6741 -11.6207 8.23117 -28.727C0.534324 -46.4169 -18.3417 -59.1148 -20.3511 -78.1575C-22.5049 -98.5691 -14.7236 -119.057 -3.09571 -136.072C9.0766 -153.884 24.6841 -178.004 46.8186 -176.447C72.3874 -174.648 79.4949 -134.715 104.364 -128.512C125.475 -123.247 149.33 -161.182 165.421 -146.867C182.136 -131.996 145.117 -102.944 155.2 -83.2845C166.928 -60.4194 212.014 -65.4649 219.684 -41.0751C226.006 -20.9701 203.858 0.812212 184.598 10.2014C165.469 19.5269 141.158 -0.691762 121.222 6.92459C100.955 14.6676 98.0436 47.7522 76.5576 51.4777Z" stroke="url(#paint5_linear_226_2046)" stroke-opacity="0.83" stroke-width="2"/>
<path opacity="0.583333" fill-rule="evenodd" clip-rule="evenodd" d="M79.7045 37.619C59.6851 38.6456 42.114 20.4119 31.2232 3.81094C20.9217 -11.8917 27.3459 -32.3211 22.0976 -50.1916C16.6703 -68.6717 -0.405069 -83.5436 -0.0519993 -102.682C0.326449 -123.195 10.5216 -142.589 24.0879 -158.074C38.2893 -174.284 56.6559 -196.341 78.3149 -192.132C103.334 -187.27 105.451 -146.788 129.239 -137.64C149.432 -129.875 177.636 -164.648 191.764 -148.506C206.439 -131.738 166.331 -107.364 173.872 -86.6428C182.644 -62.542 227.769 -62.123 232.348 -36.9977C236.122 -16.2866 211.586 2.66298 191.421 9.66217C171.394 16.6138 149.876 -6.37504 129.262 -1.2164C108.305 4.02803 101.372 36.5079 79.7045 37.619Z" stroke="url(#paint6_linear_226_2046)" stroke-opacity="0.83" stroke-width="2"/>
<path opacity="0.666667" fill-rule="evenodd" clip-rule="evenodd" d="M84.6473 24.4816C64.7519 23.1028 49.649 2.91194 40.9414 -14.8593C32.7051 -31.669 41.5678 -51.1646 38.5887 -69.5196C35.5079 -88.5007 20.48 -105.297 23.1884 -124.239C26.0915 -144.542 38.5503 -162.559 53.856 -176.295C69.8784 -190.674 90.7347 -210.354 111.603 -203.585C135.71 -195.766 132.809 -155.357 155.171 -143.435C174.154 -133.314 206.292 -164.43 218.253 -146.726C230.677 -128.336 188.066 -108.961 192.958 -87.5033C198.648 -62.5464 243.157 -56.7274 244.58 -31.2563C245.753 -10.26 219.188 5.59897 198.413 10.1272C177.779 14.6247 159.365 -10.7556 138.373 -8.10686C117.031 -5.41411 106.18 25.974 84.6473 24.4816Z" stroke="url(#paint7_linear_226_2046)" stroke-opacity="0.83" stroke-width="2"/>
<path opacity="0.75" fill-rule="evenodd" clip-rule="evenodd" d="M91.2745 12.2738C71.7896 8.53444 59.3682 -13.2845 52.9656 -31.942C46.9095 -49.5899 58.079 -67.8618 57.408 -86.415C56.7142 -105.601 43.9468 -124.046 48.9676 -142.503C54.3492 -162.286 68.8883 -178.663 85.7102 -190.456C103.32 -202.801 126.361 -219.826 146.14 -210.627C168.989 -200.001 161.119 -160.283 181.736 -145.796C199.238 -133.499 234.841 -160.516 244.466 -141.537C254.464 -121.823 209.967 -107.695 212.144 -85.8378C214.676 -60.4159 257.928 -49.3395 256.18 -23.9167C254.74 -2.96022 226.532 9.5954 205.446 11.6077C184.504 13.6063 169.454 -13.7525 148.387 -13.6296C126.969 -13.5046 112.363 16.321 91.2745 12.2738Z" stroke="url(#paint8_linear_226_2046)" stroke-opacity="0.83" stroke-width="2"/>
<path opacity="0.833333" fill-rule="evenodd" clip-rule="evenodd" d="M99.4508 1.18894C80.6536 -4.83229 71.0838 -27.9276 67.0713 -47.1751C63.2759 -65.381 76.5861 -82.1577 78.2265 -100.62C79.9229 -119.713 69.5922 -139.506 76.847 -157.197C84.6233 -176.159 101.029 -190.658 119.122 -200.343C138.063 -210.482 162.954 -224.611 181.364 -213.146C202.631 -199.901 189.92 -161.483 208.502 -144.678C224.276 -130.413 262.826 -152.95 269.983 -133.002C277.419 -112.28 231.678 -103.571 231.116 -81.6553C230.463 -56.1656 271.843 -40.0495 266.959 -15.0675C262.933 5.52551 233.49 14.6129 212.396 14.1003C191.446 13.5912 179.965 -15.3056 159.125 -17.688C137.937 -20.1101 119.795 7.70574 99.4508 1.18894Z" stroke="url(#paint9_linear_226_2046)" stroke-opacity="0.83" stroke-width="2"/>
<path opacity="0.916667" fill-rule="evenodd" clip-rule="evenodd" d="M109.017 -8.59917C91.1719 -16.7913 84.5782 -40.7944 83.0031 -60.3281C81.5132 -78.8049 96.7661 -93.8369 100.685 -111.923C104.738 -130.626 96.9809 -151.45 106.358 -168.105C116.408 -185.958 134.44 -198.367 153.543 -205.81C173.539 -213.602 199.918 -224.638 216.704 -211.101C236.093 -195.464 218.742 -158.933 235.032 -140.089C248.861 -124.093 289.797 -141.834 294.396 -121.233C299.174 -99.8331 252.845 -96.6373 249.563 -75.0044C245.746 -49.8436 284.675 -28.9765 276.736 -4.82035C270.192 15.092 239.937 20.5962 219.135 17.5859C198.475 14.5961 190.713 -15.378 170.393 -20.2097C149.736 -25.1218 128.331 0.267232 109.017 -8.59917Z" stroke="url(#paint10_linear_226_2046)" stroke-opacity="0.83" stroke-width="2"/>
<path fill-rule="evenodd" clip-rule="evenodd" d="M119.8 -16.9382C103.155 -27.1601 99.615 -51.6911 100.486 -71.2049C101.31 -89.6627 118.279 -102.727 124.409 -120.156C130.748 -138.181 125.66 -159.704 137.015 -175.071C149.185 -191.543 168.578 -201.682 188.413 -206.781C209.177 -212.118 236.663 -219.91 251.594 -204.525C268.841 -186.753 247.12 -152.667 260.901 -132.091C272.6 -114.624 315.329 -127.322 317.318 -106.394C319.385 -84.6534 273.127 -86.9862 267.187 -65.9714C260.278 -41.5297 296.216 -16.2665 285.352 6.69245C276.397 25.6179 245.763 27.4755 225.546 22.03C205.467 16.6214 201.513 -13.956 182 -21.1464C162.164 -28.4565 137.816 -5.87497 119.8 -16.9382Z" stroke="url(#paint11_linear_226_2046)" stroke-opacity="0.83" stroke-width="2"/>
<defs>
<linearGradient id="paint0_linear_226_2046" x1="252.051" y1="109.148" x2="-58.6588" y2="-141.478" gradientUnits="userSpaceOnUse">
<stop stop-color="#FFC881"/>
<stop offset="1" stop-color="#DA8517"/>
</linearGradient>
<linearGradient id="paint1_linear_226_2046" x1="245.256" y1="115.335" x2="-32.926" y2="-170.419" gradientUnits="userSpaceOnUse">
<stop stop-color="#FFC881"/>
<stop offset="1" stop-color="#DA8517"/>
</linearGradient>
<linearGradient id="paint2_linear_226_2046" x1="237.915" y1="120.784" x2="-3.80546" y2="-195.909" gradientUnits="userSpaceOnUse">
<stop stop-color="#FFC881"/>
<stop offset="1" stop-color="#DA8517"/>
</linearGradient>
<linearGradient id="paint3_linear_226_2046" x1="230.122" y1="125.436" x2="28.2628" y2="-217.572" gradientUnits="userSpaceOnUse">
<stop stop-color="#FFC881"/>
<stop offset="1" stop-color="#DA8517"/>
</linearGradient>
<linearGradient id="paint4_linear_226_2046" x1="221.98" y1="129.239" x2="62.7978" y2="-235.091" gradientUnits="userSpaceOnUse">
<stop stop-color="#FFC881"/>
<stop offset="1" stop-color="#DA8517"/>
</linearGradient>
<linearGradient id="paint5_linear_226_2046" x1="213.597" y1="132.158" x2="99.2847" y2="-248.208" gradientUnits="userSpaceOnUse">
<stop stop-color="#FFC881"/>
<stop offset="1" stop-color="#DA8517"/>
</linearGradient>
<linearGradient id="paint6_linear_226_2046" x1="205.083" y1="134.171" x2="137.182" y2="-256.727" gradientUnits="userSpaceOnUse">
<stop stop-color="#FFC881"/>
<stop offset="1" stop-color="#DA8517"/>
</linearGradient>
<linearGradient id="paint7_linear_226_2046" x1="196.551" y1="135.269" x2="175.931" y2="-260.518" gradientUnits="userSpaceOnUse">
<stop stop-color="#FFC881"/>
<stop offset="1" stop-color="#DA8517"/>
</linearGradient>
<linearGradient id="paint8_linear_226_2046" x1="188.115" y1="135.456" x2="214.96" y2="-259.523" gradientUnits="userSpaceOnUse">
<stop stop-color="#FFC881"/>
<stop offset="1" stop-color="#DA8517"/>
</linearGradient>
<linearGradient id="paint9_linear_226_2046" x1="179.885" y1="134.753" x2="253.699" y2="-253.749" gradientUnits="userSpaceOnUse">
<stop stop-color="#FFC881"/>
<stop offset="1" stop-color="#DA8517"/>
</linearGradient>
<linearGradient id="paint10_linear_226_2046" x1="171.969" y1="133.191" x2="291.577" y2="-243.271" gradientUnits="userSpaceOnUse">
<stop stop-color="#FFC881"/>
<stop offset="1" stop-color="#DA8517"/>
</linearGradient>
<linearGradient id="paint11_linear_226_2046" x1="164.473" y1="130.818" x2="328.047" y2="-228.233" gradientUnits="userSpaceOnUse">
<stop stop-color="#FFC881"/>
<stop offset="1" stop-color="#DA8517"/>
</linearGradient>
</defs>
</svg>
