<svg width="21" height="18" viewBox="0 0 21 18" fill="none" xmlns="http://www.w3.org/2000/svg">
<path fill-rule="evenodd" clip-rule="evenodd" d="M4.31864 0.0759877C3.77812 0.217292 3.30489 0.597934 3.03131 1.11142L2.88845 1.3796H10.3621C16.3126 1.3796 17.8358 1.36859 17.8355 1.32562C17.8346 1.21087 17.5645 0.807948 17.341 0.587958C17.0816 0.332729 16.6827 0.117921 16.333 0.0452393C16.1727 0.0118996 14.3825 -0.00161769 10.3518 0.000152934C5.08295 0.00239861 4.57577 0.00879017 4.31864 0.0759877ZM1.66313 2.812C0.934622 2.95196 0.285838 3.56434 0.080143 4.30615C0.00396278 4.58094 3.28771e-05 4.87728 3.28771e-05 10.3528C3.28771e-05 16.6678 -0.00864749 16.4461 0.256083 16.9052C0.522627 17.3675 0.882454 17.6736 1.40358 17.8813L1.6627 17.9846L10.2473 17.9961C17.8373 18.0061 18.865 17.9998 19.1176 17.9412C19.9195 17.7552 20.5408 17.1277 20.7091 16.3336C20.8015 15.8976 20.8015 4.8702 20.7091 4.43415C20.5579 3.72093 20.0571 3.14587 19.352 2.87587L19.1099 2.78315L10.4942 2.77689C5.14807 2.77296 1.79683 2.7863 1.66313 2.812ZM10.6857 5.61248C10.7823 5.66033 10.9002 5.75262 10.9477 5.81762C11.0321 5.93305 11.0343 6.01338 11.0456 9.37982C11.052 11.2741 11.0716 12.8239 11.0892 12.8239C11.1069 12.8239 11.4903 12.4534 11.9414 12.0005C12.3924 11.5476 12.814 11.1492 12.8781 11.1152C12.9423 11.0811 13.088 11.0534 13.202 11.0535C13.5901 11.0538 13.8623 11.326 13.8626 11.714C13.8627 11.828 13.8349 11.9737 13.8008 12.0379C13.7237 12.183 10.8129 15.0844 10.6732 15.1554C10.5274 15.2295 10.235 15.2238 10.0839 15.1441C10.0127 15.1065 9.2805 14.399 8.45681 13.5719C7.13847 12.2482 6.95558 12.0483 6.92893 11.9021C6.83742 11.4003 7.31476 10.9555 7.79339 11.0964C7.93297 11.1375 8.13814 11.317 8.81975 11.9942L9.67168 12.8406L9.68347 9.43138L9.6953 6.0221L9.79351 5.86413C9.90281 5.6884 10.1865 5.52555 10.3834 5.52551C10.4531 5.52546 10.5892 5.56463 10.6857 5.61248Z" fill="#A8A8A8"/>
</svg>
