<svg width="99" height="66" viewBox="0 0 99 66" fill="none" xmlns="http://www.w3.org/2000/svg">
<path d="M6.27344 60.374L3.52344 51.4131H3.45312C3.46354 51.6266 3.47917 51.9495 3.5 52.3818C3.52604 52.8089 3.54948 53.2646 3.57031 53.749C3.59115 54.2334 3.60156 54.6709 3.60156 55.0615V60.374H1.4375V48.9521H4.73438L7.4375 57.6865H7.48438L10.3516 48.9521H13.6484V60.374H11.3906V54.9678C11.3906 54.6084 11.3958 54.1943 11.4062 53.7256C11.4219 53.2568 11.4401 52.8115 11.4609 52.3896C11.4818 51.9626 11.4974 51.6423 11.5078 51.4287H11.4375L8.49219 60.374H6.27344ZM24.2812 55.9912C24.2812 56.7204 24.1823 57.3662 23.9844 57.9287C23.7917 58.4912 23.5078 58.9678 23.1328 59.3584C22.763 59.7438 22.3151 60.0355 21.7891 60.2334C21.2682 60.4313 20.6797 60.5303 20.0234 60.5303C19.4089 60.5303 18.8438 60.4313 18.3281 60.2334C17.8177 60.0355 17.3724 59.7438 16.9922 59.3584C16.6172 58.9678 16.3255 58.4912 16.1172 57.9287C15.9141 57.3662 15.8125 56.7204 15.8125 55.9912C15.8125 55.0225 15.9844 54.2021 16.3281 53.5303C16.6719 52.8584 17.1615 52.348 17.7969 51.999C18.4323 51.6501 19.1901 51.4756 20.0703 51.4756C20.888 51.4756 21.612 51.6501 22.2422 51.999C22.8776 52.348 23.375 52.8584 23.7344 53.5303C24.099 54.2021 24.2812 55.0225 24.2812 55.9912ZM18.2422 55.9912C18.2422 56.5641 18.3047 57.0459 18.4297 57.4365C18.5547 57.8271 18.75 58.1214 19.0156 58.3193C19.2812 58.5173 19.6276 58.6162 20.0547 58.6162C20.4766 58.6162 20.8177 58.5173 21.0781 58.3193C21.3438 58.1214 21.5365 57.8271 21.6562 57.4365C21.7812 57.0459 21.8438 56.5641 21.8438 55.9912C21.8438 55.4131 21.7812 54.9339 21.6562 54.5537C21.5365 54.1683 21.3438 53.8792 21.0781 53.6865C20.8125 53.4938 20.4661 53.3975 20.0391 53.3975C19.4089 53.3975 18.9505 53.6136 18.6641 54.0459C18.3828 54.4782 18.2422 55.1266 18.2422 55.9912ZM29.9297 58.6318C30.1901 58.6318 30.4427 58.6058 30.6875 58.5537C30.9375 58.5016 31.1849 58.4365 31.4297 58.3584V60.1318C31.1745 60.2464 30.8568 60.3402 30.4766 60.4131C30.1016 60.4912 29.6901 60.5303 29.2422 60.5303C28.7214 60.5303 28.2526 60.4469 27.8359 60.2803C27.4245 60.1084 27.099 59.8141 26.8594 59.3975C26.625 58.9756 26.5078 58.3896 26.5078 57.6396V53.4287H25.3672V52.4209L26.6797 51.624L27.3672 49.7803H28.8906V51.6396H31.3359V53.4287H28.8906V57.6396C28.8906 57.973 28.9844 58.223 29.1719 58.3896C29.3646 58.5511 29.6172 58.6318 29.9297 58.6318ZM35.5859 51.6396V60.374H33.2031V51.6396H35.5859ZM34.3984 48.2178C34.7526 48.2178 35.0573 48.3011 35.3125 48.4678C35.5677 48.6292 35.6953 48.9339 35.6953 49.3818C35.6953 49.8245 35.5677 50.1318 35.3125 50.3037C35.0573 50.4704 34.7526 50.5537 34.3984 50.5537C34.0391 50.5537 33.7318 50.4704 33.4766 50.3037C33.2266 50.1318 33.1016 49.8245 33.1016 49.3818C33.1016 48.9339 33.2266 48.6292 33.4766 48.4678C33.7318 48.3011 34.0391 48.2178 34.3984 48.2178ZM46.0312 55.9912C46.0312 56.7204 45.9323 57.3662 45.7344 57.9287C45.5417 58.4912 45.2578 58.9678 44.8828 59.3584C44.513 59.7438 44.0651 60.0355 43.5391 60.2334C43.0182 60.4313 42.4297 60.5303 41.7734 60.5303C41.1589 60.5303 40.5938 60.4313 40.0781 60.2334C39.5677 60.0355 39.1224 59.7438 38.7422 59.3584C38.3672 58.9678 38.0755 58.4912 37.8672 57.9287C37.6641 57.3662 37.5625 56.7204 37.5625 55.9912C37.5625 55.0225 37.7344 54.2021 38.0781 53.5303C38.4219 52.8584 38.9115 52.348 39.5469 51.999C40.1823 51.6501 40.9401 51.4756 41.8203 51.4756C42.638 51.4756 43.362 51.6501 43.9922 51.999C44.6276 52.348 45.125 52.8584 45.4844 53.5303C45.849 54.2021 46.0312 55.0225 46.0312 55.9912ZM39.9922 55.9912C39.9922 56.5641 40.0547 57.0459 40.1797 57.4365C40.3047 57.8271 40.5 58.1214 40.7656 58.3193C41.0312 58.5173 41.3776 58.6162 41.8047 58.6162C42.2266 58.6162 42.5677 58.5173 42.8281 58.3193C43.0938 58.1214 43.2865 57.8271 43.4062 57.4365C43.5312 57.0459 43.5938 56.5641 43.5938 55.9912C43.5938 55.4131 43.5312 54.9339 43.4062 54.5537C43.2865 54.1683 43.0938 53.8792 42.8281 53.6865C42.5625 53.4938 42.2161 53.3975 41.7891 53.3975C41.1589 53.3975 40.7005 53.6136 40.4141 54.0459C40.1328 54.4782 39.9922 55.1266 39.9922 55.9912ZM52.9609 51.4756C53.8932 51.4756 54.6432 51.7308 55.2109 52.2412C55.7786 52.7464 56.0625 53.5589 56.0625 54.6787V60.374H53.6797V55.2725C53.6797 54.6475 53.5651 54.1761 53.3359 53.8584C53.112 53.5407 52.7578 53.3818 52.2734 53.3818C51.5443 53.3818 51.0469 53.6292 50.7812 54.124C50.5156 54.6188 50.3828 55.3324 50.3828 56.2646V60.374H48V51.6396H49.8203L50.1406 52.7568H50.2734C50.4609 52.4548 50.6927 52.21 50.9688 52.0225C51.25 51.835 51.5599 51.6969 51.8984 51.6084C52.2422 51.5199 52.5964 51.4756 52.9609 51.4756ZM66.3516 58.6318C66.612 58.6318 66.8646 58.6058 67.1094 58.5537C67.3594 58.5016 67.6068 58.4365 67.8516 58.3584V60.1318C67.5964 60.2464 67.2786 60.3402 66.8984 60.4131C66.5234 60.4912 66.112 60.5303 65.6641 60.5303C65.1432 60.5303 64.6745 60.4469 64.2578 60.2803C63.8464 60.1084 63.5208 59.8141 63.2812 59.3975C63.0469 58.9756 62.9297 58.3896 62.9297 57.6396V53.4287H61.7891V52.4209L63.1016 51.624L63.7891 49.7803H65.3125V51.6396H67.7578V53.4287H65.3125V57.6396C65.3125 57.973 65.4062 58.223 65.5938 58.3896C65.7865 58.5511 66.0391 58.6318 66.3516 58.6318ZM72.0078 51.6396V60.374H69.625V51.6396H72.0078ZM70.8203 48.2178C71.1745 48.2178 71.4792 48.3011 71.7344 48.4678C71.9896 48.6292 72.1172 48.9339 72.1172 49.3818C72.1172 49.8245 71.9896 50.1318 71.7344 50.3037C71.4792 50.4704 71.1745 50.5537 70.8203 50.5537C70.4609 50.5537 70.1536 50.4704 69.8984 50.3037C69.6484 50.1318 69.5234 49.8245 69.5234 49.3818C69.5234 48.9339 69.6484 48.6292 69.8984 48.4678C70.1536 48.3011 70.4609 48.2178 70.8203 48.2178ZM84.7734 51.4756C85.763 51.4756 86.5104 51.7308 87.0156 52.2412C87.526 52.7464 87.7812 53.5589 87.7812 54.6787V60.374H85.3906V55.2725C85.3906 54.6475 85.2839 54.1761 85.0703 53.8584C84.8568 53.5407 84.526 53.3818 84.0781 53.3818C83.4479 53.3818 83 53.6084 82.7344 54.0615C82.4688 54.5094 82.3359 55.1527 82.3359 55.9912V60.374H79.9531V55.2725C79.9531 54.8558 79.9062 54.5068 79.8125 54.2256C79.7188 53.9443 79.5755 53.7334 79.3828 53.5928C79.1901 53.4521 78.9427 53.3818 78.6406 53.3818C78.1979 53.3818 77.849 53.4938 77.5938 53.7178C77.3438 53.9365 77.1641 54.262 77.0547 54.6943C76.9505 55.1214 76.8984 55.6449 76.8984 56.2646V60.374H74.5156V51.6396H76.3359L76.6562 52.7568H76.7891C76.9661 52.4548 77.1875 52.21 77.4531 52.0225C77.724 51.835 78.0208 51.6969 78.3438 51.6084C78.6667 51.5199 78.9948 51.4756 79.3281 51.4756C79.9688 51.4756 80.5104 51.5798 80.9531 51.7881C81.401 51.9964 81.7448 52.3193 81.9844 52.7568H82.1953C82.4557 52.3089 82.8229 51.9834 83.2969 51.7803C83.776 51.5771 84.2682 51.4756 84.7734 51.4756ZM93.8359 51.4756C94.6432 51.4756 95.3385 51.6318 95.9219 51.9443C96.5052 52.2516 96.9557 52.6995 97.2734 53.2881C97.5911 53.8766 97.75 54.5954 97.75 55.4443V56.6006H92.1172C92.1432 57.2725 92.3438 57.8011 92.7188 58.1865C93.099 58.5667 93.625 58.7568 94.2969 58.7568C94.8542 58.7568 95.3646 58.6995 95.8281 58.585C96.2917 58.4704 96.7682 58.2985 97.2578 58.0693V59.9131C96.8255 60.1266 96.3724 60.2829 95.8984 60.3818C95.4297 60.4808 94.8594 60.5303 94.1875 60.5303C93.3125 60.5303 92.5365 60.3688 91.8594 60.0459C91.1875 59.723 90.6589 59.2308 90.2734 58.5693C89.8932 57.9079 89.7031 57.0745 89.7031 56.0693C89.7031 55.0485 89.875 54.1995 90.2188 53.5225C90.5677 52.8402 91.0521 52.3298 91.6719 51.9912C92.2917 51.6475 93.013 51.4756 93.8359 51.4756ZM93.8516 53.1709C93.388 53.1709 93.0026 53.3193 92.6953 53.6162C92.3932 53.9131 92.2188 54.3792 92.1719 55.0146H95.5156C95.5104 54.6605 95.4453 54.3454 95.3203 54.0693C95.2005 53.7933 95.0182 53.5745 94.7734 53.4131C94.5339 53.2516 94.2266 53.1709 93.8516 53.1709Z" fill="url(#paint0_linear_226_1967)"/>
<path fill-rule="evenodd" clip-rule="evenodd" d="M35.8608 0H26V37.8182H33.7557V13.1108H34.0696L43.8565 37.6335H49.1378L56.1497 20.1302H59.2386V37.8182H66.9943V20.1302H77.7466C78.2838 20.1302 78.8155 20.0205 79.3088 19.8077C82.7392 18.3283 82.3831 13.3527 78.777 12.3769L78.3894 12.272C78.0415 12.1779 77.6828 12.1302 77.3224 12.1302H66.9943V0H57.1335L52.1616 12.1302H48.6492C48.1881 12.1302 47.7304 12.2099 47.2964 12.3659C43.0762 13.8825 44.1647 20.1302 48.6492 20.1302H48.8825L46.7188 25.4091H46.2756L35.8608 0Z" fill="url(#paint1_linear_226_1967)"/>
<defs>
<linearGradient id="paint0_linear_226_1967" x1="-7.17391" y1="37.7293" x2="-2.11069" y2="80.6414" gradientUnits="userSpaceOnUse">
<stop stop-color="#FFC881"/>
<stop offset="1" stop-color="#DA8517"/>
</linearGradient>
<linearGradient id="paint1_linear_226_1967" x1="21.9643" y1="-9.70335" x2="45.8288" y2="56.4856" gradientUnits="userSpaceOnUse">
<stop stop-color="#FFC881"/>
<stop offset="1" stop-color="#DA8517"/>
</linearGradient>
</defs>
</svg>
