<svg width="56" height="38" viewBox="0 0 56 38" fill="none" xmlns="http://www.w3.org/2000/svg">
<path fill-rule="evenodd" clip-rule="evenodd" d="M9.8608 0H0V37.8182H7.75568V13.1108H8.0696L17.8565 37.6335H23.1378L30.1497 20.1302H33.2386V37.8182H40.9943V20.1302H51.7466C52.2838 20.1302 52.8155 20.0205 53.3088 19.8077C56.7392 18.3283 56.3831 13.3527 52.777 12.3769L52.3894 12.272C52.0415 12.1779 51.6828 12.1302 51.3224 12.1302H40.9943V0H31.1335L26.1616 12.1302H22.6492C22.1881 12.1302 21.7304 12.2099 21.2964 12.3659C17.0762 13.8825 18.1647 20.1302 22.6492 20.1302H22.8825L20.7188 25.4091H20.2756L9.8608 0Z" fill="url(#paint0_linear_226_1969)"/>
<defs>
<linearGradient id="paint0_linear_226_1969" x1="-4.03566" y1="-9.70335" x2="19.8288" y2="56.4856" gradientUnits="userSpaceOnUse">
<stop stop-color="#FFC881"/>
<stop offset="1" stop-color="#DA8517"/>
</linearGradient>
</defs>
</svg>
