<svg width="16" height="20" viewBox="0 0 16 20" fill="none" xmlns="http://www.w3.org/2000/svg">
<path fill-rule="evenodd" clip-rule="evenodd" d="M6.93015 0.0534395C6.57744 0.110352 6.02429 0.291496 5.71487 0.451361C5.14693 0.744805 4.54762 1.26657 4.15283 1.81133C3.70993 2.42247 3.38245 3.3267 3.32879 4.08647C3.26669 4.96626 3.40164 5.69126 3.77177 6.46606C4.39585 7.77252 5.55073 8.65555 6.94135 8.8895C7.98955 9.06583 9.05348 8.83223 9.95882 8.227C11.0634 7.48858 11.8151 6.1892 11.9093 4.85588C11.9699 3.998 11.8358 3.25578 11.4866 2.5154C11.1453 1.79177 10.6375 1.18348 10.0233 0.762328C9.62741 0.490946 9.41905 0.383887 8.98995 0.231571C8.35444 0.00591419 7.61856 -0.0577266 6.93015 0.0534395ZM6.71409 10.0653C5.36472 10.2387 4.07821 10.7851 2.97284 11.6544C2.57409 11.968 1.89526 12.6716 1.59482 13.0828C0.720816 14.2788 0.195224 15.6368 0.0422102 17.0942C-0.0447789 17.9224 -0.00164251 18.3632 0.212078 18.8304C0.434849 19.3176 0.883482 19.7278 1.39335 19.9107L1.64255 20H7.61905H13.5955L13.8447 19.9107C14.3546 19.7278 14.8032 19.3176 15.026 18.8304C15.2397 18.3632 15.2829 17.9224 15.1959 17.0942C15.0429 15.6368 14.5173 14.2788 13.6433 13.0828C13.3428 12.6716 12.664 11.968 12.2653 11.6544C10.6582 10.3906 8.65213 9.81638 6.71409 10.0653Z" fill="#7C7C7C"/>
</svg>
