<svg width="16" height="20" viewBox="0 0 16 20" fill="none" xmlns="http://www.w3.org/2000/svg">
<path fill-rule="evenodd" clip-rule="evenodd" d="M6.84151 0.0235849C4.25748 0.340123 2.19578 2.29756 1.75969 4.84833C1.69393 5.23304 1.68119 5.48457 1.68119 6.3983V7.48904H1.01465C0.495333 7.48904 0.322814 7.50214 0.233447 7.54834C-0.0149128 7.67677 0.000177152 7.31562 0.000177152 13.1308C0.000177152 16.5232 0.0143291 18.4991 0.0395833 18.6322C0.165542 19.2964 0.704404 19.8365 1.36399 19.9596C1.65296 20.0135 13.3609 20.0134 13.6453 19.9595C14.3095 19.8335 14.8496 19.2947 14.9727 18.6351C14.9978 18.5005 15.012 16.5128 15.012 13.1308C15.012 7.31562 15.0271 7.67677 14.7787 7.54834C14.6894 7.50214 14.5169 7.48904 13.9975 7.48904H13.331V6.3983C13.331 5.48457 13.3183 5.23304 13.2525 4.84833C12.9363 2.99859 11.7658 1.43708 10.0439 0.567881C9.704 0.396301 8.95661 0.153922 8.54207 0.0808566C8.10981 0.00462462 7.23623 -0.0247736 6.84151 0.0235849ZM8.42479 2.62134C9.34035 2.8892 10.0814 3.51677 10.4949 4.37448C10.7879 4.98214 10.7999 5.05521 10.8186 6.34556L10.8352 7.48904H7.50609H4.17698L4.19356 6.34556C4.21225 5.05521 4.22425 4.98214 4.51725 4.37448C4.98934 3.39531 5.88482 2.72349 6.98459 2.52337C7.33346 2.45992 8.03647 2.50773 8.42479 2.62134ZM7.97521 10.8989C8.7604 11.1344 9.27784 11.9494 9.14817 12.7462C9.09445 13.0761 8.90923 13.4414 8.68488 13.66L8.49222 13.8476L8.62842 15.0686C8.77698 16.4002 8.77518 16.445 8.56744 16.5861C8.47471 16.6491 8.36372 16.6564 7.50609 16.6564C6.64846 16.6564 6.53748 16.6491 6.44475 16.5861C6.23701 16.445 6.23521 16.4002 6.38376 15.0686L6.51996 13.8476L6.32731 13.66C5.97543 13.3172 5.79197 12.7682 5.86257 12.2695C6.00417 11.2697 7.01813 10.6119 7.97521 10.8989Z" fill="#7C7C7C"/>
</svg>
