<svg width="18" height="19" viewBox="0 0 18 19" fill="none" xmlns="http://www.w3.org/2000/svg">
<path fill-rule="evenodd" clip-rule="evenodd" d="M1.09286 0.537129C0.831372 0.581081 0.596052 0.703143 0.401362 0.895694C0.193708 1.10112 0.0822139 1.32901 0.0330868 1.64848C-0.0290038 2.0521 0.00419554 17.4183 0.0675509 17.6023C0.189242 17.9558 0.546767 18.3127 0.89864 18.432C1.07634 18.4923 9.32423 18.5293 9.32423 18.4699C9.32423 18.4501 9.27914 18.3356 9.22408 18.2154C9.00821 17.7443 9.00943 17.7697 9.00943 13.6659C9.00943 9.42863 8.99983 9.58959 9.28807 8.99456C9.57904 8.39396 10.1607 7.90267 10.8459 7.67885C11.1107 7.59237 11.1872 7.58786 12.6354 7.57373C13.4725 7.56558 14.1459 6.88309 14.1429 6.04599L14.1373 4.51131L14.127 1.66819C14.1265 1.53365 14.0951 1.40103 14.0351 1.2806C13.8301 0.868762 13.5034 0.619899 13.0618 0.539103C12.7838 0.488241 1.39493 0.486385 1.09286 0.537129ZM5.79779 3.72445C5.80376 4.07708 5.51955 4.36615 5.16686 4.36615H3.87105H2.55867C2.21336 4.36615 1.93343 4.08622 1.93343 3.74091C1.93343 3.397 1.94545 3.10363 1.96015 3.08894C1.97485 3.07425 2.84191 3.06687 3.88689 3.07251L5.14514 3.07929C5.50188 3.08121 5.79175 3.36775 5.79779 3.72445ZM7.70379 6.93297C7.70379 7.28192 7.42091 7.5648 7.07196 7.5648H4.81861H2.56526C2.21631 7.5648 1.93343 7.28192 1.93343 6.93297C1.93343 6.58402 2.21631 6.30114 2.56526 6.30114H4.81861H7.07196C7.42091 6.30114 7.70379 6.58402 7.70379 6.93297ZM11.1147 8.951C10.8207 9.06394 10.5463 9.32588 10.4075 9.62615C10.3318 9.79005 10.2925 9.96845 10.2925 10.149V13.6659V17.2183C10.2925 17.3759 10.323 17.532 10.3821 17.6781C10.4875 17.9384 10.7535 18.2243 11.002 18.3445C11.3147 18.4958 11.5766 18.5076 14.3257 18.4944C17.3892 18.4796 17.1952 18.5034 17.6078 18.0919C18.0297 17.671 17.9995 18.0133 17.9995 13.6462V10.149C17.9995 9.96845 17.9603 9.79005 17.8846 9.62615C17.7434 9.32078 17.4692 9.06236 17.1661 8.94907C16.9546 8.86997 16.8796 8.868 14.1347 8.87001C11.4184 8.87198 11.313 8.87483 11.1147 8.951ZM7.70379 10.1514C7.70379 10.5112 7.41207 10.8029 7.05221 10.8029H4.81861H2.58501C2.22515 10.8029 1.93343 10.5112 1.93343 10.1514C1.93343 9.79151 2.22515 9.49979 2.58501 9.49979H4.81861H7.05221C7.41207 9.49979 7.70379 9.79151 7.70379 10.1514ZM16.0827 11.4348C16.0827 11.7837 15.7998 12.0666 15.4508 12.0666H14.146H12.8412C12.4923 12.0666 12.2094 11.7837 12.2094 11.4348C12.2094 11.0858 12.4923 10.8029 12.8412 10.8029H14.146H15.4508C15.7998 10.8029 16.0827 11.0858 16.0827 11.4348ZM5.13479 13.35C5.13479 13.7099 4.84307 14.0016 4.48322 14.0016H3.53411H2.58501C2.22515 14.0016 1.93343 13.7099 1.93343 13.35C1.93343 12.9902 2.22515 12.6984 2.58501 12.6984H3.53411H4.48322C4.84307 12.6984 5.13479 12.9902 5.13479 13.35ZM7.70379 13.35V13.3692C7.70379 13.7185 7.42067 14.0016 7.07142 14.0016C6.72217 14.0016 6.43905 13.7185 6.43905 13.3692V13.35V13.3308C6.43905 12.9816 6.72217 12.6984 7.07142 12.6984C7.42067 12.6984 7.70379 12.9816 7.70379 13.3308V13.35ZM13.5137 14.0016C13.5137 14.3505 13.2308 14.6334 12.8818 14.6334H12.8615H12.8412C12.4923 14.6334 12.2094 14.3505 12.2094 14.0016C12.2094 13.6526 12.4923 13.3698 12.8412 13.3698H12.8615H12.8818C13.2308 13.3698 13.5137 13.6526 13.5137 14.0016ZM16.0827 14.0016C16.0827 14.3505 15.7998 14.6334 15.4508 14.6334H15.4305H15.4102C15.0613 14.6334 14.7784 14.3505 14.7784 14.0016C14.7784 13.6526 15.0613 13.3698 15.4102 13.3698H15.4305H15.4508C15.7998 13.3698 16.0827 13.6526 16.0827 14.0016ZM13.5137 15.9168C13.5137 16.2767 13.2214 16.5684 12.8615 16.5684C12.5017 16.5684 12.2094 16.2767 12.2094 15.9168C12.2094 15.557 12.5017 15.2653 12.8615 15.2653C13.2214 15.2653 13.5137 15.557 13.5137 15.9168ZM16.0827 15.9168C16.0827 16.2767 15.7904 16.5684 15.4305 16.5684C15.0707 16.5684 14.7784 16.2767 14.7784 15.9168C14.7784 15.557 15.0707 15.2653 15.4305 15.2653C15.7904 15.2653 16.0827 15.557 16.0827 15.9168Z" fill="url(#paint0_linear_246_878)"/>
<defs>
<linearGradient id="paint0_linear_246_878" x1="0.490273" y1="11.3" x2="19.6469" y2="11.2755" gradientUnits="userSpaceOnUse">
<stop stop-color="#FF9E20"/>
<stop offset="1" stop-color="#EEA950" stop-opacity="0.69"/>
</linearGradient>
</defs>
</svg>
